<?xml version="1.0" standalone="no"?>
<!DOCTYPE svg PUBLIC "-//W3C//DTD SVG 20010904//EN"
 "http://www.w3.org/TR/2001/REC-SVG-20010904/DTD/svg10.dtd">
<svg version="1.0" xmlns="http://www.w3.org/2000/svg"
 width="348.000000pt" height="122.000000pt" viewBox="0 0 348.000000 122.000000"
 preserveAspectRatio="xMidYMid meet">

<g transform="translate(0.000000,122.000000) scale(0.100000,-0.100000)"
fill="#000000" stroke="none">
<path d="M1350 875 l0 -235 50 0 50 0 0 113 c0 125 9 147 62 147 42 0 49 -20
51 -142 l2 -113 53 -3 54 -3 -4 143 c-2 116 -6 148 -21 169 -34 51 -107 64
-164 29 l-33 -20 0 75 0 75 -50 0 -50 0 0 -235z"/>
<path d="M805 1059 c-4 -6 -5 -12 -2 -15 2 -3 7 2 10 11 7 17 1 20 -8 4z"/>
<path d="M830 1061 c0 -6 4 -13 10 -16 6 -3 7 1 4 9 -7 18 -14 21 -14 7z"/>
<path d="M1005 984 c-45 -23 -66 -45 -86 -89 -55 -120 22 -256 145 -255 28 1
62 7 76 15 32 18 40 18 40 0 0 -11 12 -15 50 -15 l50 0 0 175 0 175 -55 0
c-30 0 -54 -3 -54 -7 3 -21 -4 -21 -33 -3 -40 24 -92 26 -133 4z m142 -100
c33 -21 41 -79 16 -112 -40 -54 -106 -54 -146 0 -30 41 -15 97 33 120 36 18
58 16 97 -8z"/>
<path d="M1830 989 c-36 -14 -69 -48 -92 -93 -42 -82 -7 -200 72 -241 36 -19
117 -19 150 0 32 18 40 18 40 0 0 -11 12 -15 50 -15 l50 0 0 175 0 175 -55 0
c-42 0 -55 -4 -55 -15 0 -12 -6 -11 -32 5 -35 21 -88 25 -128 9z m109 -90 c39
-14 65 -59 56 -100 -8 -37 -49 -69 -87 -69 -40 0 -88 48 -88 88 0 35 32 79 63
85 12 2 22 5 23 6 1 0 15 -4 33 -10z"/>
<path d="M2296 975 c-34 -23 -36 -23 -36 -5 0 17 -7 20 -45 20 l-45 0 0 -175
0 -175 50 0 50 0 0 114 c0 126 8 146 59 146 46 0 51 -14 51 -142 l0 -118 55 0
55 0 0 118 c0 64 -5 134 -10 154 -23 82 -111 112 -184 63z"/>
<path d="M2650 989 c-32 -13 -78 -56 -96 -91 -23 -44 -18 -139 9 -179 49 -74
144 -101 217 -64 27 14 30 14 30 0 0 -13 10 -15 50 -13 28 2 50 6 50 11 0 4 0
81 0 172 l0 165 -50 0 c-38 0 -50 -4 -50 -15 0 -12 -6 -11 -32 5 -35 21 -87
25 -128 9z m114 -93 c79 -33 55 -166 -30 -166 -32 0 -80 25 -88 45 -19 51 11
119 57 128 12 2 23 5 25 6 1 0 18 -5 36 -13z"/>
<path d="M2936 545 c5 -13 -83 -15 -777 -17 l-784 -3 780 -5 c583 -4 779 -8
778 -17 -2 -7 7 -6 27 4 17 8 30 16 30 18 0 3 -13 11 -30 20 -26 13 -29 14
-24 0z"/>
<path d="M1410 420 c0 -5 7 -10 15 -10 8 0 15 5 15 10 0 6 -7 10 -15 10 -8 0
-15 -4 -15 -10z"/>
<path d="M2220 420 c0 -5 7 -10 15 -10 8 0 15 5 15 10 0 6 -7 10 -15 10 -8 0
-15 -4 -15 -10z"/>
<path d="M2410 420 c0 -5 7 -10 15 -10 8 0 15 5 15 10 0 6 -7 10 -15 10 -8 0
-15 -4 -15 -10z"/>
<path d="M2520 420 c0 -5 7 -10 15 -10 8 0 15 5 15 10 0 6 -7 10 -15 10 -8 0
-15 -4 -15 -10z"/>
<path d="M2660 420 c0 -5 7 -10 15 -10 8 0 15 5 15 10 0 6 -7 10 -15 10 -8 0
-15 -4 -15 -10z"/>
<path d="M2280 356 l0 -64 39 0 c27 -1 45 6 57 19 17 19 17 23 3 47 -11 19
-23 27 -42 27 -19 -1 -27 4 -27 17 0 10 -7 18 -15 18 -12 0 -15 -14 -15 -64z
m75 -16 c0 -29 -32 -41 -41 -16 -9 24 4 48 23 44 12 -2 18 -12 18 -28z"/>
<path d="M2470 355 c0 -37 4 -65 10 -65 6 0 10 28 10 65 0 37 -4 65 -10 65 -6
0 -10 -28 -10 -65z"/>
<path d="M1331 396 c-9 -11 -9 -20 -2 -34 6 -11 8 -22 5 -25 -3 -3 -1 -15 6
-26 11 -21 50 -30 50 -11 0 6 -7 10 -15 10 -10 0 -15 10 -15 30 0 17 5 30 10
30 6 0 5 8 -2 20 -15 24 -22 25 -37 6z"/>
<path d="M2577 396 c-3 -8 -4 -22 -2 -33 15 -73 15 -73 43 -73 25 1 25 2 10
14 -19 14 -25 66 -8 66 6 0 5 8 -2 20 -15 23 -34 26 -41 6z"/>
<path d="M926 377 c-22 -16 -18 -65 5 -80 17 -11 69 -2 69 12 0 5 -14 8 -32 7
-24 -1 -33 4 -36 18 -5 24 16 37 48 29 22 -6 24 -5 11 10 -16 20 -41 22 -65 4z"/>
<path d="M1024 381 c-2 -2 -4 -24 -4 -48 0 -32 4 -43 15 -43 10 0 15 10 15 34
0 21 6 36 15 40 24 9 17 24 -11 22 -14 0 -28 -3 -30 -5z"/>
<path d="M1118 379 c-21 -12 -24 -59 -6 -77 15 -15 54 -16 63 -2 3 6 -5 10
-19 10 -14 0 -28 5 -31 10 -4 6 8 10 29 10 44 0 53 13 26 40 -22 22 -36 24
-62 9z m47 -18 c3 -5 1 -13 -5 -16 -15 -9 -43 3 -35 15 8 13 32 13 40 1z"/>
<path d="M1227 383 c-14 -13 -6 -20 18 -15 19 3 25 0 25 -13 0 -11 -5 -15 -14
-12 -21 8 -50 -17 -43 -36 5 -12 18 -16 47 -15 39 1 40 2 40 39 0 28 -5 41
-19 49 -23 12 -45 13 -54 3z m39 -68 c-10 -8 -23 -12 -28 -9 -14 9 2 24 25 24
21 -1 21 -1 3 -15z"/>
<path d="M1416 383 c-3 -3 -6 -26 -6 -50 0 -32 4 -43 15 -43 11 0 15 12 15 44
0 43 -10 63 -24 49z"/>
<path d="M1470 339 c0 -27 5 -49 10 -49 6 0 10 13 10 29 0 31 22 57 40 46 5
-3 10 -22 10 -41 0 -24 4 -34 13 -31 11 4 12 75 1 86 -3 3 -22 6 -44 7 l-40 2
0 -49z"/>
<path d="M1605 374 c-32 -33 -11 -74 38 -74 19 0 27 -4 24 -12 -2 -7 -18 -12
-36 -12 -37 2 -42 -13 -7 -22 38 -9 66 11 67 51 2 44 2 63 0 73 -2 14 -71 11
-86 -4z m63 -30 c4 -27 -20 -37 -44 -19 -16 11 -16 15 -5 29 19 22 45 16 49
-10z"/>
<path d="M1780 319 c0 -39 4 -69 10 -69 6 0 10 9 10 20 0 15 7 20 28 20 35 0
52 16 52 51 0 33 -13 42 -62 45 l-38 2 0 -69z m68 42 c20 -12 10 -46 -14 -49
-25 -4 -40 24 -23 44 13 16 19 17 37 5z"/>
<path d="M1917 372 c-21 -23 -22 -46 -1 -66 22 -22 60 -20 78 5 35 50 -36 106
-77 61z m61 -30 c4 -26 -22 -40 -43 -22 -11 9 -12 17 -4 32 13 25 43 19 47
-10z"/>
<path d="M2035 376 c-16 -12 -17 -16 -6 -30 7 -9 22 -16 32 -16 11 0 19 -4 19
-10 0 -5 -14 -10 -31 -10 -17 0 -28 -4 -24 -10 9 -15 61 -12 74 4 9 11 8 18
-4 30 -9 9 -23 16 -31 16 -8 0 -14 5 -14 10 0 6 12 10 26 10 14 0 23 4 19 10
-9 14 -38 12 -60 -4z"/>
<path d="M2132 378 c-20 -20 -13 -38 18 -44 40 -8 38 -24 -2 -24 -23 0 -29 -3
-21 -11 6 -6 23 -9 39 -7 40 4 46 43 10 52 -34 8 -33 26 0 26 14 0 23 4 19 10
-9 14 -48 13 -63 -2z"/>
<path d="M2230 340 c0 -27 5 -50 10 -50 6 0 10 23 10 50 0 28 -4 50 -10 50 -5
0 -10 -22 -10 -50z"/>
<path d="M2410 340 c0 -37 4 -50 13 -47 7 2 12 21 12 47 0 26 -5 45 -12 48 -9
2 -13 -11 -13 -48z"/>
<path d="M2524 377 c-9 -24 0 -80 14 -85 8 -2 12 10 12 42 0 45 -15 70 -26 43z"/>
<path d="M2660 340 c0 -27 5 -50 10 -50 6 0 10 23 10 50 0 28 -4 50 -10 50 -5
0 -10 -22 -10 -50z"/>
<path d="M2726 371 c-37 -41 10 -99 60 -76 16 8 14 10 -13 13 -44 4 -42 22 2
22 39 0 46 17 17 43 -24 22 -45 21 -66 -2z m54 -15 c0 -8 -9 -12 -22 -11 -30
3 -30 3 -23 15 9 15 45 12 45 -4z"/>
<path d="M2842 381 c-21 -13 -10 -46 16 -49 30 -5 28 -22 -3 -22 -14 0 -25 -4
-25 -10 0 -16 56 -11 71 6 11 14 10 18 -6 30 -10 8 -25 14 -32 14 -7 0 -13 5
-13 10 0 6 12 10 26 10 14 0 23 4 19 10 -8 12 -35 13 -53 1z"/>
</g>
</svg>
